<?xml version="1.0" encoding="UTF-8" standalone="no"?>
<!-- Created with Inkscape (http://www.inkscape.org/) -->

<svg
   width="40mm"
   height="40mm"
   viewBox="0 0 40 40"
   version="1.1"
   id="svg17190"
   inkscape:version="1.1.2 (0a00cf5339, 2022-02-04, custom)"
   sodipodi:docname="refresh.svg"
   xmlns:inkscape="http://www.inkscape.org/namespaces/inkscape"
   xmlns:sodipodi="http://sodipodi.sourceforge.net/DTD/sodipodi-0.dtd"
   xmlns="http://www.w3.org/2000/svg"
   xmlns:svg="http://www.w3.org/2000/svg">
  <sodipodi:namedview
     id="namedview17192"
     pagecolor="#ffffff"
     bordercolor="#666666"
     borderopacity="1.0"
     inkscape:pageshadow="2"
     inkscape:pageopacity="0.0"
     inkscape:pagecheckerboard="true"
     inkscape:document-units="mm"
     showgrid="false"
     inkscape:zoom="2.0650953"
     inkscape:cx="97.332069"
     inkscape:cy="191.7587"
     inkscape:window-width="1920"
     inkscape:window-height="1051"
     inkscape:window-x="0"
     inkscape:window-y="0"
     inkscape:window-maximized="1"
     inkscape:current-layer="layer1" />
  <defs
     id="defs17187">
    <marker
       style="overflow:visible"
       id="Arrow2Lend"
       refX="0"
       refY="0"
       orient="auto"
       inkscape:stockid="Arrow2Lend"
       inkscape:isstock="true">
      <path
         transform="matrix(-1.1,0,0,-1.1,-1.1,0)"
         d="M 8.7185878,4.0337352 -2.2072895,0.01601326 8.7185884,-4.0017078 c -1.7454984,2.3720609 -1.7354408,5.6174519 -6e-7,8.035443 z"
         style="fill:context-stroke;fill-rule:evenodd;stroke:context-stroke;stroke-width:0.625;stroke-linejoin:round"
         id="path17330" />
    </marker>
    <filter
       inkscape:collect="always"
       style="color-interpolation-filters:sRGB"
       id="filter31314"
       x="-0.0040602935"
       y="-0.0038417649"
       width="1.0081206"
       height="1.0076835">
      <feGaussianBlur
         inkscape:collect="always"
         stdDeviation="0.084435938"
         id="feGaussianBlur31316" />
    </filter>
  </defs>
  <g
     inkscape:label="Layer 1"
     inkscape:groupmode="layer"
     id="layer1">
    <g
       id="g31404"
       transform="matrix(0.69708399,0,0,0.69708399,-19.164271,-51.194941)">
      <path
         style="color:#000000;fill:#000000;stroke-width:2.2;stroke-miterlimit:4;stroke-dasharray:none;filter:url(#filter31314)"
         d="m 60.410156,76.289062 c -6.77677,-0.416244 -14.127009,0.576055 -19.461922,5.131365 -5.657514,4.128561 -9.017492,10.889778 -9.533326,17.812705 -0.46777,4.403318 0.447097,8.913538 2.571014,12.792518 0.538581,3.24055 3.890889,6.79993 6.854579,3.48061 1.649529,-2.39566 6.80834,-3.22583 5.358727,-6.79865 -0.920004,-2.21038 -2.948097,-4.2559 -2.254415,-6.84099 -0.03202,-6.692877 5.721065,-13.434017 12.680486,-13.086606 7.05081,0.318424 13.407655,7.471319 11.781168,14.582426 -0.581053,2.77246 -2.590278,7.68929 -6.049148,6.52324 -2.27522,-1.01556 -2.570709,-7.42897 -5.623865,-4.56686 -1.102363,2.55298 -2.285806,5.01502 -3.698505,7.41648 -2.829375,5.39371 -5.590654,10.82283 -8.421613,16.21571 9.154056,-0.019 18.307893,-0.12984 27.462051,-0.0932 2.685676,-2.45732 -2.704059,-4.54041 -1.453114,-7.19277 2.245919,-2.51657 5.240228,-4.45326 6.785099,-7.5637 5.131528,-8.15227 5.220302,-19.470789 -0.703084,-27.252908 -3.774737,-5.50192 -9.928806,-8.949115 -16.294132,-10.55937 z m -0.169922,1.246094 c 8.174536,1.924012 15.722807,7.660532 18.470473,15.782571 3.434213,9.541573 -0.384927,21.043613 -8.624058,26.858573 -2.999162,2.33643 0.54863,4.62407 1.366935,6.79389 -1.634502,1.89188 -4.560393,0.14774 -6.757382,0.62736 -6.006861,0.023 -12.01354,0.082 -18.020443,0.0957 3.778173,-7.2779 7.555812,-14.55608 11.333985,-21.83398 1.965612,1.83661 2.336427,6.41076 5.760448,5.95131 2.578979,-1.06643 4.319419,-3.65733 5.352867,-6.15959 2.088255,-5.41724 -0.06621,-11.869324 -4.741974,-15.215097 -4.186305,-3.267816 -10.483662,-4.04557 -14.937347,-0.859354 -5.268652,3.314214 -8.084755,10.364918 -6.160178,16.335951 2.109036,2.0512 1.891101,5.10952 -0.77151,6.58597 -1.659478,1.60922 -5.070437,4.59801 -6.544394,1.23341 -1.701288,-4.17 -3.92546,-8.44552 -3.381191,-13.10431 0.285555,-6.726944 3.094145,-13.529679 8.500959,-17.734132 4.486181,-3.820589 10.418704,-5.606951 16.264564,-5.394773 0.962878,-0.007 1.92577,0.0099 2.888246,0.03653 z"
         id="path30628"
         sodipodi:nodetypes="ccccccccccccccccccsccccccccccccsccccss" />
    </g>
  </g>
</svg>
